<?xml version="1.0" encoding="iso-8859-1"?>
<!-- Generator: Adobe Illustrator 19.0.0, SVG Export Plug-In . SVG Version: 6.00 Build 0)  -->
<svg version="1.1" id="Capa_1" xmlns="http://www.w3.org/2000/svg" xmlns:xlink="http://www.w3.org/1999/xlink" x="0px" y="0px"
	 viewBox="0 0 512 512" style="enable-background:new 0 0 512 512;" xml:space="preserve">
<g>
	<path style="fill:#FEDBA8;" d="M25.706,146.691l9.721,12.459h442.383l8.486-12.459c2.267-3.652-0.359-8.374-4.658-8.374H30.363
		C26.064,138.316,23.438,143.039,25.706,146.691z"/>
</g>
<rect x="35.426" y="159.148" style="fill:#EDC38C;" width="442.378" height="58.188"/>
<polygon style="fill:#E2B681;" points="35.426,159.147 35.426,174.027 107.598,174.027 48.431,202.35 82.987,202.35 
	141.787,174.027 370.213,174.027 429.013,202.35 462.848,202.35 404.402,174.027 477.812,174.027 477.812,159.147 "/>
<path style="fill:#94DFBA;" d="M273.016,7.421c0-4.098-3.323-7.421-7.421-7.421c-3.338,0-6.162,2.206-7.094,5.238
	c-0.783-0.28-1.622-0.441-2.5-0.441c-0.879,0-1.718,0.161-2.5,0.441C252.567,2.206,249.744,0,246.406,0
	c-4.098,0-7.421,3.323-7.421,7.421c0,6.72,3.926,12.525,9.594,15.288v26.055c0,4.098,3.323,7.421,7.421,7.421
	s7.421-3.323,7.421-7.421V22.71C269.09,19.946,273.016,14.141,273.016,7.421z"/>
<path style="fill:#7CD1A4;" d="M271.357,59.961c-2.317-0.61-3.957-3.198-3.957-6.159l0,0c0-2.783-1.803-5.038-4.028-5.038H256
	h-7.372c-2.225,0-4.028,2.256-4.028,5.038l0,0c0,2.96-1.641,5.548-3.957,6.159c-6.915,1.821-11.863,9.452-11.863,18.288v29.935
	c0,0.097,0,0.194,0.001,0.292c0.084,14.508,9.705,26.113,21.304,26.113H256h5.914c11.599,0,21.221-11.605,21.304-26.113
	c0.001-0.097,0.001-0.194,0.001-0.292V78.249C283.219,69.414,278.272,61.784,271.357,59.961z"/>
<g>
	<path style="fill:#94DFBA;" d="M202.134,133.179L202.134,133.179c-5.552,0-10.051-4.5-10.051-10.051V92.827
		c0-5.552,4.5-10.051,10.051-10.051l0,0c5.552,0,10.051,4.5,10.051,10.051v30.3C212.185,128.678,207.685,133.179,202.134,133.179z"
		/>
	<path style="fill:#94DFBA;" d="M238.044,133.179L238.044,133.179c-5.552,0-10.051-4.5-10.051-10.051V92.827
		c0-5.552,4.5-10.051,10.051-10.051l0,0c5.552,0,10.051,4.5,10.051,10.051v30.3C248.096,128.678,243.596,133.179,238.044,133.179z"
		/>
	<path style="fill:#94DFBA;" d="M273.956,133.179L273.956,133.179c-5.552,0-10.051-4.5-10.051-10.051V92.827
		c0-5.552,4.5-10.051,10.051-10.051l0,0c5.552,0,10.051,4.5,10.051,10.051v30.3C284.006,128.678,279.506,133.179,273.956,133.179z"
		/>
	<path style="fill:#94DFBA;" d="M309.866,133.179L309.866,133.179c-5.552,0-10.051-4.5-10.051-10.051V92.827
		c0-5.552,4.5-10.051,10.051-10.051l0,0c5.552,0,10.051,4.5,10.051,10.051v30.3C319.917,128.678,315.417,133.179,309.866,133.179z"
		/>
</g>
<path style="fill:#FEDBA8;" d="M326.188,125.528v91.811H185.812v-91.811c0-3.026,2.457-5.483,5.483-5.483h129.41
	C323.731,120.045,326.188,122.502,326.188,125.528z"/>
<rect x="185.814" y="191.321" style="fill:#EDC38C;" width="140.372" height="24.375"/>
<rect x="21.819" y="285.414" style="fill:#FEDBA8;" width="34.113" height="208.081"/>
<rect x="21.819" y="285.414" style="fill:#EDC38C;" width="34.113" height="45.234"/>
<rect x="104.469" y="285.414" style="fill:#FEDBA8;" width="34.113" height="208.081"/>
<rect x="104.469" y="285.414" style="fill:#EDC38C;" width="34.113" height="45.234"/>
<rect x="187.131" y="285.414" style="fill:#FEDBA8;" width="34.101" height="208.081"/>
<rect x="187.131" y="285.414" style="fill:#EDC38C;" width="34.101" height="45.234"/>
<rect x="292.07" y="285.414" style="fill:#FEDBA8;" width="34.113" height="208.081"/>
<rect x="292.07" y="285.414" style="fill:#EDC38C;" width="34.113" height="45.234"/>
<rect x="374.732" y="285.414" style="fill:#FEDBA8;" width="34.113" height="208.081"/>
<rect x="374.732" y="285.414" style="fill:#EDC38C;" width="34.113" height="45.234"/>
<rect x="457.383" y="285.414" style="fill:#FEDBA8;" width="34.113" height="208.081"/>
<g>
	<rect x="457.383" y="285.414" style="fill:#EDC38C;" width="34.113" height="45.234"/>
	<rect x="21.819" y="480.319" style="fill:#EDC38C;" width="34.113" height="17.715"/>
	<rect x="104.469" y="480.319" style="fill:#EDC38C;" width="34.113" height="17.715"/>
	<rect x="187.131" y="480.319" style="fill:#EDC38C;" width="34.101" height="17.715"/>
	<rect x="292.07" y="480.319" style="fill:#EDC38C;" width="34.113" height="17.715"/>
	<rect x="374.732" y="480.319" style="fill:#EDC38C;" width="34.113" height="17.715"/>
	<rect x="457.383" y="480.319" style="fill:#EDC38C;" width="34.113" height="17.715"/>
</g>
<g>
	<path style="fill:#FEDBA8;" d="M61.327,512H17.428c-3.504,0-6.108-3.241-5.354-6.663l1.662-7.54
		c0.554-2.513,2.78-4.302,5.354-4.302h41.021c2.691,0,4.984,1.953,5.413,4.609l1.216,7.54C67.278,508.977,64.703,512,61.327,512z"/>
	<path style="fill:#FEDBA8;" d="M143.668,512H99.769c-3.504,0-6.108-3.241-5.354-6.663l1.662-7.54
		c0.554-2.513,2.78-4.302,5.354-4.302h41.021c2.691,0,4.984,1.953,5.413,4.609l1.216,7.54C149.619,508.977,147.044,512,143.668,512z
		"/>
	<path style="fill:#FEDBA8;" d="M226.009,512H182.11c-3.504,0-6.108-3.241-5.354-6.663l1.662-7.54
		c0.554-2.513,2.78-4.302,5.354-4.302h41.021c2.691,0,4.984,1.953,5.413,4.609l1.216,7.54C231.96,508.977,229.386,512,226.009,512z"
		/>
	<path style="fill:#FEDBA8;" d="M331.587,512h-43.899c-3.504,0-6.108-3.241-5.354-6.663l1.662-7.54
		c0.554-2.513,2.78-4.302,5.354-4.302h41.021c2.691,0,4.984,1.953,5.413,4.609l1.216,7.54C337.538,508.977,334.964,512,331.587,512z
		"/>
	<path style="fill:#FEDBA8;" d="M413.929,512H370.03c-3.504,0-6.108-3.241-5.354-6.663l1.662-7.54
		c0.554-2.513,2.78-4.302,5.354-4.302h41.021c2.691,0,4.984,1.953,5.413,4.609l1.216,7.54C419.879,508.977,417.305,512,413.929,512z
		"/>
	<path style="fill:#FEDBA8;" d="M496.27,512h-43.899c-3.504,0-6.108-3.241-5.354-6.663l1.662-7.54
		c0.554-2.513,2.78-4.302,5.354-4.302h41.021c2.691,0,4.984,1.953,5.413,4.609l1.216,7.54C502.22,508.977,499.646,512,496.27,512z"
		/>
	<path style="fill:#FEDBA8;" d="M61.327,285.412H17.428c-3.504,0-6.108,3.241-5.354,6.663l1.662,7.54
		c0.554,2.513,2.78,4.302,5.354,4.302h41.021c2.691,0,4.984-1.953,5.413-4.609l1.216-7.54
		C67.278,288.434,64.703,285.412,61.327,285.412z"/>
	<path style="fill:#FEDBA8;" d="M143.668,285.412H99.769c-3.504,0-6.108,3.241-5.354,6.663l1.662,7.54
		c0.554,2.513,2.78,4.302,5.354,4.302h41.021c2.691,0,4.984-1.953,5.413-4.609l1.216-7.54
		C149.619,288.434,147.044,285.412,143.668,285.412z"/>
	<path style="fill:#FEDBA8;" d="M226.009,285.412H182.11c-3.504,0-6.108,3.241-5.354,6.663l1.662,7.54
		c0.554,2.513,2.78,4.302,5.354,4.302h41.021c2.691,0,4.984-1.953,5.413-4.609l1.216-7.54
		C231.96,288.434,229.386,285.412,226.009,285.412z"/>
	<path style="fill:#FEDBA8;" d="M331.587,285.412h-43.899c-3.504,0-6.108,3.241-5.354,6.663l1.662,7.54
		c0.554,2.513,2.78,4.302,5.354,4.302h41.021c2.691,0,4.984-1.953,5.413-4.609l1.216-7.54
		C337.538,288.434,334.964,285.412,331.587,285.412z"/>
	<path style="fill:#FEDBA8;" d="M413.929,285.412H370.03c-3.504,0-6.108,3.241-5.354,6.663l1.662,7.54
		c0.554,2.513,2.78,4.302,5.354,4.302h41.021c2.691,0,4.984-1.953,5.413-4.609l1.216-7.54
		C419.879,288.434,417.305,285.412,413.929,285.412z"/>
	<path style="fill:#FEDBA8;" d="M496.27,285.412h-43.899c-3.504,0-6.108,3.241-5.354,6.663l1.662,7.54
		c0.554,2.513,2.78,4.302,5.354,4.302h41.021c2.691,0,4.984-1.953,5.413-4.609l1.216-7.54
		C502.22,288.434,499.646,285.412,496.27,285.412z"/>
	<rect x="21.819" y="224.831" style="fill:#FEDBA8;" width="469.682" height="60.582"/>
</g>
<rect x="21.819" y="224.831" style="fill:#EDC38C;" width="469.682" height="25.944"/>
<path style="fill:#FEDBA8;" d="M491.497,231.604H21.819L1.182,208.982c-2.402-3.646,0.212-8.499,4.578-8.499h500.481
	c4.366,0,6.98,4.855,4.578,8.499L491.497,231.604z"/>
<g>
	<rect x="21.819" y="276.626" style="fill:#EDC38C;" width="469.682" height="8.783"/>
	<path style="fill:#EDC38C;" d="M336.744,162.693H175.255c-3.028,0-5.483-2.454-5.483-5.483v-13.411
		c0-3.028,2.454-5.483,5.483-5.483h161.489c3.028,0,5.483,2.454,5.483,5.483v13.41C342.227,160.238,339.773,162.693,336.744,162.693
		z"/>
</g>
<g>
	<path style="fill:#D8A66F;" d="M63.266,231.604v6.491c0,4.101-3.323,7.423-7.413,7.423c-4.101,0-7.423-3.323-7.423-7.423v-6.491
		H63.266z"/>
	<path style="fill:#D8A66F;" d="M113.312,231.604v6.491c0,4.101-3.323,7.423-7.423,7.423c-4.101,0-7.423-3.323-7.423-7.423v-6.491
		H113.312z"/>
	<path style="fill:#D8A66F;" d="M163.345,231.604v6.491c0,4.101-3.323,7.423-7.423,7.423c-4.09,0-7.423-3.323-7.423-7.423v-6.491
		H163.345z"/>
	<path style="fill:#D8A66F;" d="M213.379,231.604v6.491c0,4.101-3.323,7.423-7.412,7.423c-4.101,0-7.423-3.323-7.423-7.423v-6.491
		H213.379z"/>
	<path style="fill:#D8A66F;" d="M263.423,231.604v6.491c0,4.101-3.323,7.423-7.423,7.423c-4.1,0-7.423-3.323-7.423-7.423v-6.491
		H263.423z"/>
	<path style="fill:#D8A66F;" d="M313.457,231.604v6.491c0,4.101-3.323,7.423-7.423,7.423c-4.09,0-7.413-3.323-7.413-7.423v-6.491
		H313.457z"/>
	<path style="fill:#D8A66F;" d="M363.501,231.604v6.491c0,4.101-3.333,7.423-7.423,7.423c-4.101,0-7.423-3.323-7.423-7.423v-6.491
		H363.501z"/>
	<path style="fill:#D8A66F;" d="M413.535,231.604v6.491c0,4.101-3.323,7.423-7.423,7.423c-4.101,0-7.423-3.323-7.423-7.423v-6.491
		H413.535z"/>
	<path style="fill:#D8A66F;" d="M463.569,231.604v6.491c0,4.101-3.323,7.423-7.423,7.423c-4.09,0-7.413-3.323-7.413-7.423v-6.491
		H463.569z"/>
	<path style="fill:#D8A66F;" d="M67.082,159.147v3.553c0,4.101-3.323,7.423-7.423,7.423s-7.423-3.323-7.423-7.423v-3.553H67.082z"/>
	<path style="fill:#D8A66F;" d="M104.101,159.147v3.553c0,4.101-3.323,7.423-7.423,7.423s-7.423-3.323-7.423-7.423v-3.553H104.101z"
		/>
	<path style="fill:#D8A66F;" d="M422.746,159.147v3.553c0,4.101-3.323,7.423-7.423,7.423S407.9,166.8,407.9,162.7v-3.553H422.746z"
		/>
	<path style="fill:#D8A66F;" d="M459.763,159.147v3.553c0,4.101-3.323,7.423-7.423,7.423s-7.423-3.323-7.423-7.423v-3.553H459.763z"
		/>
</g>
<g>
</g>
<g>
</g>
<g>
</g>
<g>
</g>
<g>
</g>
<g>
</g>
<g>
</g>
<g>
</g>
<g>
</g>
<g>
</g>
<g>
</g>
<g>
</g>
<g>
</g>
<g>
</g>
<g>
</g>
</svg>
