<svg id="Layer_1" enable-background="new 0 0 512 512" height="512" viewBox="0 0 512 512" width="512" xmlns="http://www.w3.org/2000/svg"><g><g><path d="m502 492h-16v-30-201.999c5.523 0 10-4.478 10-10s-4.477-10-10-10v-30.001-25.857l7.07-7.07c1.875-1.875 2.929-4.419 2.929-7.071v-20c0-5.522-4.477-10-10-10h-20v-.001-15.857l7.071-7.07c1.875-1.876 2.929-4.419 2.929-7.071v-20.001c0-5.522-4.477-10-10-10h-129.999v-10.001c0-5.522-4.477-10-10-10h-10.53c2.582-5.218 7.314-9.257 13.118-10.813 5.335-1.429 8.501-6.912 7.071-12.247-1.429-5.334-6.912-8.504-12.247-7.071-14.544 3.897-25.702 15.685-29.04 30.131h-28.372v-5.9l22.071-22.071c3.905-3.905 3.905-10.237 0-14.143-3.905-3.904-10.237-3.904-14.143 0l-7.928 7.928v-15.815c0-5.522-4.477-10-10-10s-10 4.478-10 10v15.815l-7.929-7.929c-3.905-3.904-10.237-3.904-14.143 0-3.905 3.905-3.905 10.237 0 14.143l22.072 22.072v5.9h-28.372c-3.337-14.446-14.495-26.234-29.04-30.131-5.334-1.43-10.818 1.736-12.247 7.071-1.43 5.335 1.736 10.818 7.071 12.247 5.804 1.555 10.536 5.594 13.118 10.813h-10.53c-5.523 0-10 4.478-10 10v10.001h-129.999c-5.523 0-10 4.478-10 10v19.999c0 2.652 1.053 5.195 2.929 7.071l7.071 7.07v15.858.001h-20.001c-5.523 0-10 4.478-10 10v20c0 2.652 1.054 5.196 2.929 7.071l7.071 7.07v25.858 30.001c-5.523 0-10 4.478-10 10s4.477 10 10 10v201.999 30h-16c-5.523 0-10 4.478-10 10s4.477 10 10 10h492c5.523 0 10-4.478 10-10s-4.477-10-10-10zm-36-40h-20.001v-191.999h20.001zm-379.999-211.999v-20.001h39.999v20.001c-5.523 0-10 4.478-10 10s4.477 10 10 10v191.999h-39.999v-191.999c5.523 0 10-4.478 10-10s-4.477-10-10-10zm80-20.001v20.001h-20.001v-20.001zm-20.001 40.001h20.001v191.999h-20.001zm40.001 0c5.523 0 10-4.478 10-10s-4.477-10-10-10v-20.001h39.999v20.001c-5.523 0-10 4.478-10 10s4.477 10 10 10v191.999h-39.999zm79.999-40.001v20.001h-20v-20.001zm-20 40.001h20v191.999h-20zm40 0c5.523 0 10-4.478 10-10s-4.477-10-10-10v-20.001h39.999v20.001c-5.523 0-10 4.478-10 10s4.477 10 10 10v191.999h-39.999zm80-40.001v20.001h-20.001v-20.001zm-20.001 40.001h20.001v191.999h-20.001zm40.001 0c5.523 0 10-4.478 10-10s-4.477-10-10-10v-20.001h39.998v20.001c-5.523 0-10 4.478-10 10s4.477 10 10 10v191.999h-39.998zm59.999-20v-20.001h20.001v20.001zm10-139.999v5.857l-7.071 7.07c-1.875 1.876-2.929 4.419-2.929 7.071v20 .001h-109.999v-.001-39.998zm-139.999-20.001v20.001h-120v-20.001zm-252.928 32.929-7.071-7.07v-5.857h119.999v39.997.001h-110v-.001-19.999c0-2.652-1.053-5.195-2.928-7.071zm-27.072 47.071h174.997c5.523 0 10-4.478 10-10s-4.477-10-10-10h-14.997v-.001-19.998h120v19.998.001h-15.003c-5.523 0-10 4.478-10 10s4.477 10 10 10h175.003v5.857l-7.07 7.07c-1.876 1.876-2.93 4.42-2.93 7.072v20h-420v-20c0-2.652-1.054-5.196-2.929-7.071l-7.071-7.071zm10 59.999h20.001v20.001h-20.001zm20.001 40.001v191.999h-20.001v-191.999zm-20.001 231.999v-20h420v20z"/><path d="m256 160.001c5.523 0 10-4.478 10-10s-4.477-10-10-10h-.007c-5.523 0-9.996 4.478-9.996 10s4.48 10 10.003 10z"/></g></g></svg>